PathFileType	4	(X/Y/Z)	Walk4.trc
DataRate	CameraRate	NumFrames	NumMarkers	Units	OrigDataRate	OrigDataStartFrame	OrigNumFrames
200.000000	200.000000	7	69	mm	200.000000	680	1013
Frame#	Times		LFHD		LowerBodyModelVer		RCAR		RFHD		RWRU		RACR1		RFA1		RASI		LElbow		LTH3		LTB1		RUA1		LMT1		LACR1		LLFC		LMT5		LTH4		LTH2		LUA1		RTH2		LTB3		LTB2		LTB4		LToe		STRN		RBHD		CLAV		RTH4		RLFC		LLMAL		LASI		PELOrigin		RTH3		LWRU		RBack		LTH1		LFA1		C7		RPSI		LBHD		RMT1		RCAL		RMT5		LPSI		RTH1		RTB2		RToe		LHJC		MidPelvis		OPelvis		RHJC		SACR		XPelvis		YPelvis		ZPelvis		LCAR		RLMAL		LWRR		RWRR		RElbow		RTB1		RTB3		RTB4		RMMAL		LMMAL		T10		RElbowM		LCAL		LElbowM
			X1	Y1	Z1	X2	Y2	Z2	X3	Y3	Z3	X4	Y4	Z4	X5	Y5	Z5	X6	Y6	Z6	X7	Y7	Z7	X8	Y8	Z8	X9	Y9	Z9	X10	Y10	Z10	X11	Y11	Z11	X12	Y12	Z12	X13	Y13	Z13	X14	Y14	Z14	X15	Y15	Z15	X16	Y16	Z16	X17	Y17	Z17	X18	Y18	Z18	X19	Y19	Z19	X20	Y20	Z20	X21	Y21	Z21	X22	Y22	Z22	X23	Y23	Z23	X24	Y24	Z24	X25	Y25	Z25	X26	Y26	Z26	X27	Y27	Z27	X28	Y28	Z28	X29	Y29	Z29	X30	Y30	Z30	X31	Y31	Z31	X32	Y32	Z32	X33	Y33	Z33	X34	Y34	Z34	X35	Y35	Z35	X36	Y36	Z36	X37	Y37	Z37	X38	Y38	Z38	X39	Y39	Z39	X40	Y40	Z40	X41	Y41	Z41	X42	Y42	Z42	X43	Y43	Z43	X44	Y44	Z44	X45	Y45	Z45	X46	Y46	Z46	X47	Y47	Z47	X48	Y48	Z48	X49	Y49	Z49	X50	Y50	Z50	X51	Y51	Z51	X52	Y52	Z52	X53	Y53	Z53	X54	Y54	Z54	X55	Y55	Z55	X56	Y56	Z56	X57	Y57	Z57	X58	Y58	Z58	X59	Y59	Z59	X60	Y60	Z60	X61	Y61	Z61	X62	Y62	Z62	X63	Y63	Z63	X64	Y64	Z64	X65	Y65	Z65	X66	Y66	Z66	X67	Y67	Z67	X68	Y68	Z68	X69	Y69	Z69

680	3.4	-428.32	1558.2	6.0566	9	2014	4	-466.56	787.01	407.27	-424.39	1556.2	103.97	-517.14	831.8	416.79	-552.42	1350.3	224.13	-519.5	937.27	382.76	-496.93	929.93	214.73	-681	1088.2	-248.29	-447.11	550.18	-152.47	-360.15	350.41	-30.36	-572.43	1208.3	313.71	-206.66	81.711	-25.389	-549.92	1353.1	-133.85	-437.26	483.21	-129.55	-224	56.707	-105.53	-474.83	628.24	-184.56	-426.49	653.92	-157.89	-596.84	1216.4	-215.43	-570.69	601.73	200.35	-327.86	182.62	-40.842	-355.58	268.7	-98.176	-347.92	266	-36.671	-172.1	95.659	-28.21	-417.44	1199.1	60.455	-594.86	1550.6	119.29	-477.21	1318.9	49.196	-626.89	616.39	215.66	-672.22	442.86	178.28	-347.17	75.318	-98.333	-465.11	948.71	-138.28	-481.02	939.32	38.223	-649.52	533.41	194.96	-725.54	854.95	-323.83	-692.52	1289.6	149.52	-499.9	704.63	-212.25	-665.13	958.56	-292.38	-637.56	1396.9	60.812	-732.52	969.89	44.981	-580.89	1541.1	-15.937	-707.4	34.596	62.821	-894.38	48.198	97.725	-723.68	21.911	152.11	-706.35	971.47	-86.322	-594.13	690.34	235.64	-718.64	258.77	157.5	-661.38	28.575	71.676	-564.41	842.93	-95.761	-600.23	955	8.7761	-481.02	939.32	38.223	-586.04	830.16	144.29	-719.43	970.68	-20.671	-401.87	929.73	44.848	-471.84	1018.6	43.27	-488.19	935.09	117.79	-704	798.84	-331.37	-835.17	75.653	143.73	-668.67	835.27	-279.2	-476.02	838.3	356.18	-605.57	1050.1	362.76	-658.43	320.41	97.598	-758.81	166.81	72.933	-708.62	243.61	85.266	-812.86	84.101	59.651	-333.82	86.056	-15.481	-695.67	1069.7	14.401	-643.61	1025	282.83	-385.82	22.94	-50.715	-681.45	1046.1	-148.05
681	3.405	-423.56	1557.6	4.8161	9	2014	4	-461.93	787.05	406.75	-419.68	1555.7	102.73	-512.58	831.75	416.16	-547.78	1349.9	222.89	-514.98	937.2	382.03	-491.65	929.27	214.34	-676.08	1086.9	-249.1	-438.44	550.34	-150.64	-355.3	349.09	-28.958	-568.06	1208.1	312.74	-204.45	78.409	-22.711	-544.81	1352	-135.14	-430.28	482.83	-128.35	-221.71	54.153	-103.16	-466.8	627.96	-183.26	-419.03	654.35	-156.16	-591.89	1215.1	-216.48	-565.89	601.04	200.35	-324.6	181.02	-38.866	-351.31	267.2	-96.563	-343.91	264.57	-35.02	-169.48	91.522	-25.083	-412.35	1198.4	59.549	-590.16	1550	117.96	-472.27	1318.2	48.039	-622.02	615.94	215.83	-667.81	442.36	178.48	-344.68	74.122	-96.483	-459.45	947.68	-138.58	-475.55	938.47	37.879	-644.81	532.81	195.09	-721.23	853.74	-324.29	-687.75	1289	148.17	-492.58	703.94	-211.51	-660.53	957.19	-293.02	-632.8	1396.2	59.285	-727.09	969.04	44.326	-576.11	1540.4	-17.262	-707.25	34.757	63.015	-894	50.06	98.056	-723.74	21.859	152.13	-700.85	970.53	-87.011	-589.09	689.72	235.55	-716.11	258.77	157.81	-661.35	28.528	71.708	-558.77	841.97	-96.065	-594.76	954.13	8.2682	-475.55	938.47	37.879	-580.67	829.46	143.92	-713.97	969.79	-21.343	-396.41	928.89	44.6	-466.37	1017.8	42.853	-482.81	934.33	117.44	-699.9	797.54	-331.72	-834.51	76.792	144.12	-664.49	833.88	-279.54	-471.4	838.27	355.61	-601.13	1050	361.94	-655.16	319.71	97.928	-757.21	167.25	73.295	-706.18	243.48	85.611	-812.16	85.165	60.031	-331.66	84.366	-13.516	-690.39	1068.9	13.665	-639.14	1024.8	282.05	-384.31	22.672	-49.329	-676.39	1044.9	-148.79
682	3.41	-418.79	1557.2	3.5514	9	2014	4	-457.43	787.07	406.17	-414.97	1555.2	101.47	-508.13	831.69	415.48	-543.14	1349.6	221.63	-510.55	937.12	381.26	-486.31	928.62	213.93	-671.1	1085.6	-249.95	-429.8	550.52	-148.73	-350.6	347.8	-27.528	-563.73	1208	311.72	-202.43	74.988	-20.131	-539.66	1350.8	-136.48	-423.45	482.47	-127.19	-219.63	51.569	-100.94	-458.66	627.74	-181.91	-411.44	654.76	-154.4	-586.87	1213.9	-217.57	-561	600.38	200.35	-321.5	179.45	-36.961	-347.1	265.77	-94.977	-340.04	263.18	-33.397	-167.04	87.163	-22.032	-407.25	1197.8	58.593	-585.46	1549.4	116.59	-467.31	1317.6	46.846	-617.06	615.53	216.03	-663.3	441.89	178.7	-342.35	73.017	-94.778	-453.8	946.67	-138.93	-470.05	937.65	37.502	-640	532.24	195.23	-716.82	852.51	-324.77	-682.99	1288.5	146.79	-485.03	703.37	-210.68	-655.84	955.8	-293.68	-628.04	1395.6	57.704	-721.64	968.21	43.68	-571.31	1539.8	-18.625	-707.09	34.927	63.221	-893.56	52.068	98.418	-723.8	21.798	152.15	-695.33	969.61	-87.702	-583.94	689.11	235.45	-713.49	258.82	158.16	-661.31	28.484	71.744	-553.15	841.03	-96.401	-589.27	953.28	7.7452	-470.05	937.65	37.502	-575.25	828.75	143.54	-708.48	968.91	-22.011	-390.92	928.07	44.302	-460.88	1017	42.405	-477.38	933.58	117.06	-695.7	796.21	-332.08	-833.79	78.025	144.55	-660.21	832.48	-279.9	-466.88	838.25	354.99	-596.76	1049.9	361.08	-651.79	319.04	98.285	-755.52	167.77	73.69	-703.65	243.4	85.987	-811.38	86.319	60.447	-329.69	82.701	-11.679	-685.1	1068.1	12.934	-634.72	1024.6	281.21	-383.03	22.552	-48.124	-671.27	1043.7	-149.56
683	3.415	-414.02	1556.8	2.2646	9	2014	4	-453.05	787.08	405.55	-410.26	1554.8	100.18	-503.81	831.63	414.74	-538.5	1349.2	220.35	-506.21	937.05	380.46	-480.91	927.98	213.49	-666.03	1084.3	-250.82	-421.27	550.74	-146.77	-346.04	346.56	-26.075	-559.44	1207.9	310.66	-200.57	71.497	-17.674	-534.49	1349.6	-137.85	-416.77	482.15	-126.06	-217.7	48.995	-98.901	-450.46	627.6	-180.54	-403.76	655.15	-152.61	-581.79	1212.6	-218.68	-556.01	599.76	200.36	-318.51	177.94	-35.144	-342.94	264.43	-93.426	-336.28	261.84	-31.812	-164.73	82.639	-19.089	-402.12	1197.2	57.59	-580.77	1548.8	115.18	-462.34	1317	45.62	-612.01	615.16	216.25	-658.69	441.45	178.95	-340.15	72.025	-93.232	-448.16	945.71	-139.32	-464.53	936.85	37.087	-635.09	531.68	195.38	-712.31	851.24	-325.27	-678.24	1287.9	145.37	-477.3	702.93	-209.78	-651.06	954.38	-294.36	-623.27	1395	56.073	-716.18	967.4	43.042	-566.5	1539.3	-20.023	-706.9	35.106	63.439	-893.05	54.237	98.811	-723.87	21.727	152.17	-689.8	968.73	-88.394	-578.69	688.53	235.34	-710.79	258.94	158.54	-661.28	28.44	71.782	-547.52	840.11	-96.77	-583.76	952.45	7.2058	-464.53	936.85	37.087	-569.8	828.06	143.14	-702.99	968.06	-22.676	-385.41	927.28	43.953	-455.36	1016.2	41.924	-471.92	932.85	116.65	-691.39	794.86	-332.47	-833	79.362	145.01	-655.82	831.06	-280.28	-462.47	838.22	354.34	-592.46	1049.8	360.17	-648.31	318.41	98.672	-753.74	168.36	74.122	-701.03	243.39	86.397	-810.51	87.572	60.903	-327.88	81.097	-9.9863	-679.8	1067.3	12.21	-630.35	1024.4	280.31	-381.92	22.583	-47.105	-666.07	1042.5	-150.37
684	3.42	-409.24	1556.4	0.9583	9	2014	4	-448.81	787.08	404.87	-405.55	1554.5	98.878	-499.6	831.58	413.95	-533.87	1349	219.06	-501.96	936.99	379.62	-475.47	927.37	213.02	-660.89	1083	-251.73	-412.9	550.99	-144.78	-341.61	345.4	-24.61	-555.19	1207.9	309.55	-198.84	67.982	-15.364	-529.28	1348.5	-139.26	-410.25	481.9	-125	-215.91	46.468	-97.057	-442.24	627.54	-179.15	-396.02	655.52	-150.81	-576.63	1211.3	-219.82	-550.94	599.19	200.38	-315.63	176.52	-33.433	-338.79	263.22	-91.92	-332.63	260.58	-30.276	-162.54	78.012	-16.291	-396.98	1196.6	56.541	-576.07	1548.3	113.75	-457.37	1316.5	44.364	-606.87	614.82	216.51	-653.96	441.05	179.21	-338.06	71.162	-91.856	-442.53	944.8	-139.76	-459	936.08	36.633	-630.07	531.17	195.54	-707.69	849.97	-325.78	-673.5	1287.5	143.93	-469.39	702.64	-208.83	-646.18	952.96	-295.07	-618.48	1394.4	54.399	-710.71	966.62	42.414	-561.68	1538.8	-21.452	-706.7	35.292	63.667	-892.44	56.585	99.234	-723.95	21.647	152.18	-684.25	967.88	-89.087	-573.33	687.98	235.23	-707.98	259.12	158.95	-661.26	28.397	71.82	-541.9	839.24	-97.176	-578.24	951.67	6.6485	-459	936.08	36.633	-564.3	827.39	142.72	-697.48	967.25	-23.336	-379.87	926.52	43.549	-449.83	1015.4	41.408	-466.43	932.15	116.19	-686.96	793.5	-332.86	-832.12	80.811	145.51	-651.32	829.63	-280.68	-458.17	838.2	353.63	-588.22	1049.7	359.2	-644.71	317.83	99.094	-751.85	169.04	74.593	-698.28	243.43	86.843	-809.54	88.931	61.401	-326.19	79.587	-8.4499	-674.51	1066.6	11.496	-626.02	1024.2	279.34	-380.95	22.755	-46.264	-660.79	1041.2	-151.2
685	3.425	-404.45	1556.2	-0.3648	9	2014	4	-444.7	787.07	404.15	-400.84	1554.3	97.557	-495.52	831.53	413.1	-529.23	1348.7	217.78	-497.81	936.93	378.74	-469.98	926.79	212.51	-655.66	1081.6	-252.65	-404.74	551.28	-142.8	-337.32	344.33	-23.147	-550.97	1207.8	308.39	-197.24	64.492	-13.223	-524.05	1347.3	-140.69	-403.88	481.72	-124.02	-214.26	44.022	-95.427	-434.06	627.59	-177.78	-388.27	655.86	-149.02	-571.41	1210	-220.98	-545.76	598.67	200.4	-312.84	175.2	-31.84	-334.65	262.14	-90.469	-329.07	259.42	-28.801	-160.49	73.348	-13.673	-391.83	1196.1	55.449	-571.37	1547.9	112.28	-452.38	1316	43.082	-601.63	614.53	216.79	-649.11	440.7	179.51	-336.05	70.434	-90.654	-436.91	943.94	-140.24	-453.44	935.37	36.136	-624.94	530.7	195.71	-702.97	848.69	-326.29	-668.76	1287.1	142.46	-461.35	702.53	-207.83	-641.21	951.53	-295.8	-613.68	1393.9	52.689	-705.25	965.87	41.796	-556.84	1538.3	-22.909	-706.47	35.486	63.903	-891.72	59.125	99.687	-724.03	21.559	152.2	-678.71	967.1	-89.78	-567.88	687.47	235.11	-705.04	259.38	159.41	-661.24	28.354	71.858	-536.29	838.42	-97.62	-572.71	950.93	6.0722	-453.44	935.37	36.136	-558.78	826.76	142.25	-691.98	966.49	-23.992	-374.32	925.82	43.09	-444.28	1014.7	40.854	-460.9	931.5	115.69	-682.42	792.15	-333.26	-831.14	82.383	146.04	-646.7	828.21	-281.09	-453.97	838.19	352.88	-584.05	1049.7	358.19	-640.98	317.3	99.551	-749.83	169.82	75.106	-695.4	243.56	87.328	-808.45	90.405	61.943	-324.61	78.197	-7.0765	-669.22	1066	10.795	-621.73	1024.1	278.3	-380.08	23.049	-45.589	-655.44	1040	-152.06
686	3.43	-399.64	1556	-1.7015	9	2014	4	-440.73	787.06	403.37	-396.11	1554.1	96.219	-491.56	831.49	412.2	-524.59	1348.6	216.51	-493.75	936.89	377.82	-464.46	926.24	211.95	-650.34	1080.3	-253.6	-396.85	551.62	-140.88	-333.14	343.36	-21.705	-546.78	1207.7	307.2	-195.75	61.073	-11.269	-518.78	1346.2	-142.15	-397.65	481.63	-123.13	-212.73	41.69	-94.024	-425.94	627.76	-176.43	-380.54	656.2	-147.25	-566.1	1208.7	-222.15	-540.48	598.22	200.44	-310.15	174.01	-30.376	-330.52	261.21	-89.083	-325.59	258.37	-27.399	-158.57	68.713	-11.26	-386.67	1195.7	54.315	-566.67	1547.5	110.79	-447.38	1315.6	41.778	-596.28	614.27	217.1	-644.12	440.41	179.85	-334.14	69.838	-89.623	-431.3	943.17	-140.76	-447.88	934.71	35.593	-619.69	530.28	195.91	-698.13	847.41	-326.82	-664.04	1286.9	140.97	-453.2	702.62	-206.82	-636.13	950.11	-296.54	-608.86	1393.6	50.951	-699.8	965.18	41.188	-551.99	1538	-24.39	-706.22	35.686	64.147	-890.87	61.875	100.17	-724.13	21.462	152.21	-673.16	966.38	-90.469	-562.33	687.03	234.98	-701.97	259.72	159.91	-661.24	28.31	71.893	-530.67	837.68	-98.105	-567.18	950.24	5.4763	-447.88	934.71	35.593	-553.22	826.17	141.74	-686.48	965.78	-24.641	-368.76	925.17	42.573	-438.72	1014	40.261	-455.36	930.89	115.15	-677.76	790.8	-333.68	-830.05	84.086	146.61	-641.98	826.8	-281.5	-449.89	838.18	352.08	-579.95	1049.7	357.13	-637.09	316.83	100.05	-747.68	170.69	75.661	-692.38	243.76	87.854	-807.23	92.003	62.531	-323.13	76.944	-5.8674	-663.93	1065.4	10.109	-617.48	1024	277.19	-379.3	23.438	-45.063	-650	1038.7	-152.94
